<?xml version="1.0" encoding="utf-8"?>
<!-- Generator: Adobe Illustrator 24.3.0, SVG Export Plug-In . SVG Version: 6.00 Build 0)  -->
<svg version="1.1" id="Layer_1" xmlns="http://www.w3.org/2000/svg" xmlns:xlink="http://www.w3.org/1999/xlink" x="0px" y="0px"
	 viewBox="0 0 50 50" style="enable-background:new 0 0 50 50;" xml:space="preserve">
<style type="text/css">
	.st0{fill:#804393;}
</style>
<g>
	<path class="st0" d="M15.9,32.2c-0.3-0.6-0.6-1.2-0.9-1.8c-0.9-2.2-1.2-4.4-1-6.8c0-0.1,0-0.2-0.1-0.3c-0.3-0.5-0.7-0.9-1-1.5
		c-0.2-0.4-0.1-0.9,0.3-1.2c0.1-0.1,0.1-0.1,0-0.3c-1.7-2.6-3.4-5.1-5.1-7.7c-0.3-0.5-0.6-0.9-0.9-1.4C7.1,11,7,10.7,7,10.4
		C7,10,7,9.6,7,9.3C7,9.1,7.1,9,7.2,9.1c0.3,0,0.5,0,0.8,0c0.2,0,0.2,0.1,0.2,0.2c0,0.3,0,0.6,0,0.9c0,0.2,0.1,0.3,0.1,0.5
		c1.7,2.6,3.4,5.1,5.1,7.7c0.3,0.4,0.6,0.8,0.8,1.3c0.1,0.1,0.2,0.2,0.3,0.1c0.8-0.6,1.7-1.1,2.5-1.7c0.1-0.1,0.2-0.2,0.1-0.3
		c-0.2-0.2-0.3-0.5-0.5-0.8c-0.3,0.2-0.5,0.4-0.8,0.5c-0.1,0.1-0.2,0.1-0.2,0.1c-0.3,0.1-0.6,0-0.7-0.2c-0.1-0.2-0.1-0.6,0.1-0.7
		c0.3-0.2,0.5-0.4,0.8-0.6c0.1-0.1,0.1-0.2,0.1-0.3c-0.1-0.2-0.3-0.4-0.4-0.6c-0.1-0.2-0.2-0.2-0.3-0.1c-0.2,0.2-0.5,0.3-0.7,0.5
		c-0.3,0.2-0.6,0.1-0.8-0.2c-0.2-0.3-0.1-0.6,0.2-0.8c0.3-0.2,0.6-0.4,0.9-0.6c-0.2-0.3-0.4-0.6-0.6-0.9c0,0-0.2,0-0.2,0
		c-0.3,0.2-0.5,0.4-0.8,0.5c-0.4,0.2-0.8,0.1-0.9-0.3c-0.1-0.2,0-0.5,0.2-0.6c0.3-0.2,0.5-0.4,0.8-0.5c0.1-0.1,0.1-0.2,0.1-0.3
		c-0.2-0.3-0.3-0.5-0.5-0.8c-0.3,0.2-0.6,0.4-0.9,0.6c-0.1,0.1-0.3,0.1-0.4,0.1c-0.2,0-0.5-0.2-0.5-0.4c-0.1-0.2,0-0.5,0.2-0.6
		c0.2-0.2,0.5-0.3,0.8-0.5c0.1,0,0.1-0.1,0.2-0.1c-0.2-0.3-0.4-0.6-0.6-0.9c0,0-0.2,0-0.2,0c-0.3,0.2-0.6,0.4-0.8,0.5
		c-0.2,0.1-0.4,0.1-0.6,0C9.8,9.7,9.7,9.5,9.7,9.3c0-0.2,0.1-0.3,0.3-0.3c0.9,0,1.8,0,2.7,0c0.2,0,0.2,0.1,0.3,0.2c1.3,2,2.7,4,4,6
		c0.1,0.2,0.3,0.4,0.4,0.6c0.1-0.1,0.1-0.1,0.2-0.2c1.6-1.8,3.6-3.1,5.9-3.9c1.6-0.5,3.2-0.8,4.9-0.7c2.8,0.1,5.3,1,7.5,2.6
		c2.4,1.8,4.1,4.1,5,6.9c0.7,2.2,0.9,4.5,0.5,6.8c-1,4.9-3.7,8.3-8.2,10.3c-2.2,1-4.6,1.3-7,1c-2.5-0.3-4.8-1.2-6.8-2.8
		c-0.1-0.1-0.3-0.1-0.5-0.1c-0.4,0-0.7,0-1.1,0c-0.4,0-0.5,0.1-0.5,0.5c-0.1,0.8-0.1,1.6-0.4,2.4c-0.4,1.4-1.4,2.2-2.8,2.4
		c-0.6,0.1-1.2-0.1-1.8-0.3c-0.1,0-0.2-0.1-0.3-0.1c-0.2-0.1-0.4-0.3-0.4-0.5c0-0.2,0.1-0.4,0.3-0.5c0.3-0.1,0.6-0.2,0.8-0.3
		c0.1-0.1,0.3-0.1,0.4-0.2c0.4-0.2,0.5-0.5,0.5-1c-0.1-0.7-0.2-1.3-0.2-2c-0.1-1.7,0.8-3.2,2.3-3.9C15.8,32.3,15.8,32.2,15.9,32.2z
		 M21.6,26.7c0.2-0.2,0.4-0.3,0.6-0.5c1-0.7,2-1.3,3.3-1.4c1.3-0.1,2.4,0.6,2.8,1.9c0.2,0.7,0.1,1.4-0.2,2.1
		c-0.5,1.5-1.5,2.8-2.7,3.8c-0.7,0.6-1.4,0.8-2.3,0.6c-0.1,0-0.2,0-0.2,0.1c-0.1,0.2-0.2,0.4-0.3,0.6c-0.1,0.2,0,0.2,0.1,0.3
		c2.4,1.3,4.9,1.6,7.6,1c2.7-0.7,4.7-2.2,6.2-4.5c1.5-2.3,1.9-4.9,1.4-7.6c-0.4-2.1-1.4-4-2.9-5.5c-1.6-1.6-3.6-2.6-5.9-2.9
		c-1.5-0.2-3-0.1-4.5,0.4c-1.7,0.5-3.2,1.5-4.4,2.8c-0.1,0.1-0.1,0.2,0,0.3c0.1,0.2,0.2,0.3,0.3,0.5c0.2,0.5,0.1,1-0.3,1.4
		c-0.1,0.1-0.3,0.2-0.4,0.3c-0.2,0.1-0.2,0.2-0.1,0.4c0.5,1,1,2,1.5,3c0.3,0.6,0.2,1.1-0.3,1.5c0,0-0.1,0.1-0.1,0.1
		C21.1,25.8,21.3,26.2,21.6,26.7z M20.8,35.6c0,0,0.1,0.1,0.1,0.1c1.8,1.2,3.8,1.9,6,2c2.2,0.1,4.3-0.3,6.3-1.2
		c4.3-2.2,6.8-5.7,7.2-10.5c0.2-2.9-0.4-5.5-2-7.9c-2.1-3.2-5-5-8.8-5.6c-1.8-0.3-3.6-0.2-5.4,0.4c-1.5,0.4-3,1.2-4.2,2.2
		c-0.7,0.5-1.3,1.2-1.9,1.8c-0.1,0.1-0.1,0.2,0,0.3c0.1,0.1,0.2,0.1,0.3,0c0.2,0,0.5-0.1,0.7-0.1c0.2,0,0.3,0,0.5-0.1
		c3.2-3.3,8-4.4,12.2-2.8c4.2,1.6,6.7,4.8,7.4,9.3c0.4,2.7-0.1,5.2-1.5,7.5c-1.7,2.9-4.3,4.8-7.6,5.5c-1.9,0.4-3.8,0.3-5.6-0.3
		c-0.8-0.3-1.6-0.6-2.4-1C22,35,21.8,35,21.8,35C21.4,35.2,21.1,35.4,20.8,35.6z M21.5,28.5c-0.1,0.1-0.1,0.1-0.1,0.2
		c-0.4,0.7-0.3,1.6,0.2,2.2c0.2,0.2,0.4,0.5,0.7,0.7c0.8,0.7,1.8,0.7,2.6,0c0.7-0.6,1.3-1.3,1.7-2.1c0.3-0.6,0.6-1.2,0.6-1.9
		c0-0.6-0.2-1.1-0.8-1.4c-0.4-0.2-0.8-0.2-1.2-0.1c-1.1,0.2-2,0.9-2.9,1.6c-0.1,0.1-0.1,0.2,0,0.3c0.3,0.4,0.5,0.8,0.8,1.2
		c0.1,0.2,0.3,0.4,0.4,0.6c0.2,0.3,0.1,0.6-0.2,0.8c-0.3,0.2-0.6,0.1-0.8-0.2c-0.1-0.1-0.1-0.2-0.2-0.3
		C22.2,29.5,21.8,29.1,21.5,28.5z M21.2,32.1C21.2,32.1,21.2,32.1,21.2,32.1c-0.5,0.8-1.1,1.1-2,1C18.6,33,18,33,17.4,33
		c-1.7,0.1-3,1.6-2.8,3.3c0.1,0.6,0.1,1.3,0.2,1.9c0.1,0.7-0.1,1.2-0.6,1.7c0,0-0.1,0.1-0.1,0.2c0.8-0.1,1.6-0.8,1.8-1.6
		c0.2-0.7,0.2-1.4,0.3-2.1c0.1-0.8,0.5-1.3,1.3-1.5c0.4-0.1,0.8-0.1,1.2-0.1c0.5,0,1,0,1.5-0.2c1-0.2,1.6-0.8,1.9-1.8
		c0-0.1,0-0.2,0-0.2C21.7,32.4,21.4,32.3,21.2,32.1z M17.5,24.9C17.4,24.9,17.4,24.9,17.5,24.9c-0.1,0.1-0.1,0.2-0.1,0.3
		c0,1,0.1,1.9,0.4,2.8c0.4,1.4,1.1,2.6,2,3.7c0.1,0.2,0.2,0.1,0.3,0c0.1-0.2,0.1-0.4,0.2-0.6c0-0.1,0-0.2,0-0.3
		c-0.5-1.2-0.3-2.2,0.4-3.2c0-0.1,0.1-0.2,0-0.3c-0.3-0.4-0.6-0.9-0.8-1.3c0,0-0.2-0.1-0.2-0.1c-0.6,0.3-1.2,0.1-1.6-0.4
		C17.9,25.3,17.7,25.1,17.5,24.9z M18.5,31.9c-0.1-0.1-0.1-0.2-0.2-0.3c-1.6-2.3-2.2-4.9-2-7.7c0-0.2,0-0.4-0.2-0.6
		c-0.3-0.3-0.3-0.3-0.7-0.1c-0.1,0.1-0.3,0.1-0.3,0.4c0,0.3-0.1,0.6-0.1,0.9c-0.1,2.5,0.5,4.8,1.7,6.9c0.2,0.3,0.4,0.6,0.8,0.5
		C17.9,31.8,18.2,31.9,18.5,31.9z M18.9,18.2c-1.6,1.1-3.2,2.1-4.8,3.2c0.2,0.3,0.4,0.5,0.5,0.8c0.1,0.2,0.2,0.2,0.4,0.1
		c0.9-0.7,1.9-1.3,2.9-1.9c0.5-0.3,1-0.7,1.5-1c0.1-0.1,0.2-0.1,0.1-0.2C19.2,18.8,19.1,18.5,18.9,18.2z M16.9,22.3
		C16.9,22.4,16.9,22.4,16.9,22.3c0.7,0.9,1.5,1.8,2.2,2.6c0,0,0.2,0.1,0.2,0c0.3-0.2,0.5-0.3,0.7-0.5c0.2-0.1,0.2-0.2,0.1-0.3
		c-0.4-0.7-0.7-1.4-1-2.1c-0.1-0.3-0.3-0.5-0.4-0.8C18,21.6,17.4,21.9,16.9,22.3z"/>
	<path class="st0" d="M31.8,20.4c0,1.6-1.3,2.9-2.8,2.9c-1.6,0-2.9-1.3-2.9-2.9c0-1.6,1.3-2.9,2.9-2.9
		C30.5,17.5,31.8,18.8,31.8,20.4z M28.9,18.7c-1,0-1.7,0.8-1.7,1.7c0,1,0.8,1.7,1.7,1.7c1,0,1.7-0.8,1.7-1.7
		C30.7,19.4,29.9,18.7,28.9,18.7z"/>
	<path class="st0" d="M24.9,22.1c0,1-0.8,1.7-1.8,1.7c-0.9,0-1.7-0.8-1.7-1.7c0-1,0.8-1.7,1.7-1.7C24.1,20.4,24.9,21.2,24.9,22.1z
		 M23.2,22.7c0.3,0,0.6-0.3,0.6-0.6c0-0.3-0.3-0.6-0.6-0.6c-0.3,0-0.6,0.3-0.6,0.6C22.6,22.5,22.8,22.7,23.2,22.7z"/>
	<path class="st0" d="M32.4,23.3c0-1,0.8-1.7,1.8-1.7c0.9,0,1.7,0.8,1.7,1.8c0,0.9-0.8,1.7-1.8,1.7C33.1,25,32.4,24.2,32.4,23.3z
		 M34.1,23.9c0.3,0,0.6-0.2,0.6-0.6c0-0.3-0.2-0.6-0.6-0.6c-0.3,0-0.6,0.2-0.6,0.6C33.5,23.6,33.8,23.9,34.1,23.9z"/>
	<path class="st0" d="M34.7,28.5c0,0.3-0.3,0.6-0.6,0.6c-0.3,0-0.6-0.3-0.6-0.6c0-0.3,0.3-0.6,0.6-0.6
		C34.4,27.9,34.7,28.2,34.7,28.5z"/>
	<path class="st0" d="M33.5,26.8c0,0.3-0.2,0.6-0.6,0.6c-0.3,0-0.6-0.2-0.6-0.6c0-0.3,0.2-0.6,0.5-0.6
		C33.3,26.2,33.5,26.4,33.5,26.8z"/>
</g>
<polygon class="st0" points="8.2,10.2 8.2,8.6 9.5,7.6 10.7,7.9 11.6,9.3 12.9,9.3 11.4,7.2 9.7,6.8 7,9.3 "/>
<polygon class="st0" points="12,8.7 10.5,9.9 9.9,9 11.4,7.9 "/>
</svg>
