<?xml version="1.0" encoding="utf-8"?>
<!-- Generator: Adobe Illustrator 26.0.0, SVG Export Plug-In . SVG Version: 6.00 Build 0)  -->
<svg version="1.1" id="Layer_1" xmlns="http://www.w3.org/2000/svg" xmlns:xlink="http://www.w3.org/1999/xlink" x="0px" y="0px"
	 viewBox="0 0 105.9 103.72" style="enable-background:new 0 0 105.9 103.72;" xml:space="preserve">
<style type="text/css">
	.st0{clip-path:url(#SVGID_00000157294814777763010400000004586973838757526953_);fill:#CD3048;}
	.st1{clip-path:url(#SVGID_00000081615155676099038150000008560664830894664586_);fill:#EBBCC6;}
	.st2{clip-path:url(#SVGID_00000135656139686458863470000001823991467714834329_);fill:#FEF3F7;}
	.st3{clip-path:url(#SVGID_00000057868008134114721660000000357170642379678645_);fill:#320D6D;}
	.st4{clip-path:url(#SVGID_00000043423114891249224620000004438973126292858006_);fill:#94E8B4;}
	.st5{clip-path:url(#SVGID_00000079465323869950190680000018350106301779307675_);fill:#B61E42;}
	.st6{fill:none;stroke:#320D6D;stroke-width:2;stroke-linecap:round;stroke-linejoin:round;stroke-miterlimit:10;}
	.st7{fill:#CD3048;}
	.st8{fill:none;stroke:#FFFFFF;stroke-width:2;stroke-linecap:round;stroke-linejoin:round;stroke-miterlimit:10;}
	
		.st9{fill:none;stroke:#FFFFFF;stroke-width:2;stroke-linecap:round;stroke-linejoin:round;stroke-miterlimit:10;stroke-dasharray:1,3;}
	.st10{fill:#FFFFFF;}
	
		.st11{fill:none;stroke:#320D6D;stroke-width:2;stroke-linecap:round;stroke-linejoin:round;stroke-miterlimit:10;stroke-dasharray:1,3;}
	.st12{fill:none;stroke:#B61E42;stroke-width:2;stroke-linecap:round;stroke-linejoin:round;stroke-miterlimit:10;}
	
		.st13{fill:none;stroke:#B61E42;stroke-width:2;stroke-linecap:round;stroke-linejoin:round;stroke-miterlimit:10;stroke-dasharray:1,3;}
	.st14{fill:#A77BF7;}
	.st15{fill:#B61E42;}
	.st16{fill:#2B37AE;}
	.st17{fill:#588DFF;}
	.st18{fill:#4ACDD3;}
	.st19{fill:none;stroke:#2B37AE;stroke-linecap:round;stroke-linejoin:round;stroke-miterlimit:10;}
	.st20{fill:none;stroke:#320D6D;stroke-linecap:round;stroke-linejoin:round;stroke-miterlimit:10;}
	.st21{fill:#2B37AE;stroke:#2B37AE;stroke-width:2;stroke-miterlimit:10;}
	.st22{fill:#FFFFFF;stroke:#B61E42;stroke-width:2;stroke-linecap:round;stroke-linejoin:round;stroke-miterlimit:10;}
	.st23{fill:none;stroke:#FFFFFF;stroke-width:2;stroke-linecap:round;stroke-miterlimit:10;}
</style>
<g>
	<path class="st12" d="M47.71,54.42c-1.66-4.44-2.05-11.03,2.02-14.35c1.95-1.59,4.02-3.53,4.01-6.23
		c-0.01-3.94-3.93-5.35-6.11-7.96c-1.68-2.02-2.59-4.86-2.01-7.51c0.29-1.34,1.04-2.38,1.7-3.55c0.45-0.79,1.54-2.28,1.34-3.26"/>
	<path class="st16" d="M75.8,38.95c-3.66-4.03-10.23-3.9-12.98-1.47c-1.63,1.45-2.01,2.28-2.35,3.02c-0.31,0.69-0.58,1.28-2.1,2.48
		c-1.26,0.99-1.98,2.46-1.98,4.03c0.01,2.75,2.49,5.45,4.71,6.27c0.32,0.12,0.5,0.47,0.4,0.8c-0.11,0.36-0.5,0.56-0.85,0.42
		c-2.63-0.96-4.9-2.95-6.19-5.55c-0.6-1.21-2.12-1.65-3.28-0.94c-0.9,0.55-1.32,1.63-1.02,2.63c0.55,1.89,1.5,3.67,2.81,5.22
		c-0.59,0.06-1.09,0.18-1.46,0.29c-1.84-2.37-3.06-5.41-6.16-6.48c-1.41-0.54-3.4-0.51-6.05,0.09c-0.42-1.59-2.14-2.45-3.67-1.83
		c-1.22,0.5-1.91,1.79-1.65,3.08l0.16,0.76c0.33,1.63,1.73,2.82,3.4,2.88c0.42,0.02,2.18,0.06,2.61,0.08
		c0.98,0.04,1.81,0.7,2.06,1.64c0.9,3.38,2.69,6.56,5.75,8.34c3.02,1.76,7.04,2,11.04,0.66c4.15-1.39,7.91-4.35,10.63-8.35
		C78.14,54.5,81.36,45.07,75.8,38.95z"/>
	<ellipse class="st12" cx="52.95" cy="51.86" rx="41.81" ry="40.94"/>
	<ellipse class="st12" cx="52.95" cy="51.86" rx="51.95" ry="50.86"/>
</g>
</svg>
