<svg id="Layer_1" data-name="Layer 1" xmlns="http://www.w3.org/2000/svg" viewBox="0 0 512 512"><title>lab-flask-glyph</title><path d="M444.51,477.37a99.24,99.24,0,0,0-5.58-13.3L336.72,268.47l-.21-.39c-8-13.7-11.33-43.45-12-54.08V47.53c9.54-4.27,13.19-15.4,13.19-23.45v-.57c-.63-9.25-5.43-16.51-13.52-20.42A33.75,33.75,0,0,0,309.94,0H202.06a33.63,33.63,0,0,0-14.21,3.09c-8.1,3.9-12.92,11.17-13.52,20.42v.57c0,8.05,3.66,19.17,13.16,23.45V214c-.6,10.63-3.93,40.39-12,54.08l-.09.18L73.1,464.07a93.2,93.2,0,0,0-5.61,13.3c-3.78,11.38-3.78,20,0,26.19,1.92,3.16,6.6,8.44,16.64,8.44H427.9c10.07,0,14.75-5.28,16.64-8.44C448.29,497.34,448.29,488.75,444.51,477.37ZM190.63,276.71c11.81-20.34,14.15-60.28,14.27-62V31.87h-8.73c-1.35,0-2.31-.18-3.33-2.5a16.18,16.18,0,0,1-1.11-5.05,6,6,0,0,1,3.66-5.53,16.24,16.24,0,0,1,6.65-1.4h.27l.12,0h107l.3,0h.24a16.37,16.37,0,0,1,6.69,1.4,6,6,0,0,1,3.66,5.53,16.18,16.18,0,0,1-1.11,5.05c-1,2.32-2,2.5-3.36,2.5h-8.73V214.73c.12,1.69,2.46,41.63,14.3,62l28.79,55.14H161.82Z" fill="#5b5b5f"/></svg>